@startuml
title 基于GitHub的实验管理平台--类图
class users {
    <b>user_id</b> （用户ID）
    name （用户真实姓名）
    github_username （用户GitHub账号）
    update_date （用户GitHub账号修改日期）
    password （用户密码）
    disable （用户是否禁用）
}
class teachers{
    <b>teacher_id</b> （老师工号）
    department（老师所属部门）
}
class students{
    <b>student_id</b> （学号）
    class （班级）

}
users <|- students
users <|-- teachers
class course {
    <b>course_name</b> （课程名）
    <b>teacher_id</b>（任课老师）
    term（学期）
    test_id(实验编号)
    course_num（课程限定人数)
    course_time（上课时间）
    course_wtime（上课周数）

}
class t_grades {
    <b>student_id</b> （学号）
    <b>course_name</b> （课程名称）
    <b>test_id</b> （实验编号）
    result （分数）
    memo （评价）
    update_date （评改日期）
    test_web_sum （学生该实验网站正确与否）
}
class c_grades {
    <b>student_id</b> （学号）
    <b>course_name</b> （课程名称）
    result_sum（成绩汇总）
    course_web_sum （学生该课程网站正确与否）
}

class tests {
    <b>test_id</b> （实验编号）
    <b>course_name</b> （实验编号）
    title (实验名称)
    test_content(实验内容)
    test_standard(实验评分项)
    last_time(实验截止时间)
}

course "n" -- "n"  c_grades
c_grades "1" -- "n"  t_grades
tests "1" -- "n"  t_grades
teachers "1" -- "n"  course
students "n" -- "n"  c_grades
tests "n" -- "1"  course

@enduml